<svg viewBox="0 0 40 40" fill="none" xmlns="http://www.w3.org/2000/svg">
<path d="M20 39.9998C17.6 39.7331 15.2083 39.0415 12.825 37.9248C10.4417 36.8081 8.3 35.2581 6.4 33.2748C4.5 31.2915 2.95833 28.8415 1.775 25.9248C0.591667 23.0081 0 19.6165 0 15.7498V13.8498H1.9C3.66667 13.8498 5.55 14.1915 7.55 14.8748C9.55 15.5581 11.3167 16.4331 12.85 17.4998C13.1167 14.4998 13.9167 11.4081 15.25 8.2248C16.5833 5.04147 18.1667 2.31647 20 0.0498047C21.8333 2.31647 23.4167 5.04147 24.75 8.2248C26.0833 11.4081 26.8833 14.4998 27.15 17.4998C28.6833 16.4998 30.45 15.6415 32.45 14.9248C34.45 14.2081 36.3333 13.8498 38.1 13.8498H40V15.7498C40 19.6165 39.4083 23.0081 38.225 25.9248C37.0417 28.8415 35.5 31.2915 33.6 33.2748C31.7 35.2581 29.5583 36.8081 27.175 37.9248C24.7917 39.0415 22.4 39.7331 20 39.9998ZM20.4 36.9498C20.0333 30.7498 18.2417 26.0498 15.025 22.8498C11.8083 19.6498 7.81667 17.6665 3.05 16.8998C3.48333 23.3331 5.35833 28.1331 8.675 31.2998C11.9917 34.4665 15.9 36.3498 20.4 36.9498ZM19.95 24.6998C20.4167 23.8331 21.0583 22.8998 21.875 21.8998C22.6917 20.8998 23.4833 20.0665 24.25 19.3998C24.4167 17.1331 24.0833 14.8331 23.25 12.4998C22.4167 10.1665 21.3333 7.7498 20 5.2498C18.6667 7.7498 17.5833 10.1665 16.75 12.4998C15.9167 14.8331 15.5833 17.1331 15.75 19.3998C16.5167 20.0665 17.2917 20.8998 18.075 21.8998C18.8583 22.8998 19.4833 23.8331 19.95 24.6998V24.6998ZM23.4 36.0998C24.9667 35.5331 26.525 34.7831 28.075 33.8498C29.625 32.9165 31.025 31.6998 32.275 30.1998C33.525 28.6998 34.575 26.8581 35.425 24.6748C36.275 22.4915 36.7833 19.8998 36.95 16.8998C33.4167 17.4665 30.3 18.7248 27.6 20.6748C24.9 22.6248 22.9167 25.0331 21.65 27.8998C22.05 29.1665 22.4 30.4415 22.7 31.7248C23 33.0081 23.2333 34.4665 23.4 36.0998Z" fill="currentColor"/>
</svg>
