<svg viewBox="0 0 40 32" fill="none" xmlns="http://www.w3.org/2000/svg">
<path d="M4 31.5C3.03333 31.5 2.20833 31.1583 1.525 30.475C0.841667 29.7917 0.5 28.9667 0.5 28V26C0.5 25.0333 0.841667 24.2083 1.525 23.525C2.20833 22.8417 3.03333 22.5 4 22.5C4.96667 22.5 5.79167 22.8417 6.475 23.525C7.15833 24.2083 7.5 25.0333 7.5 26V28C7.5 28.9667 7.15833 29.7917 6.475 30.475C5.79167 31.1583 4.96667 31.5 4 31.5ZM38.1 31.5H35.3C35.0333 31.5 34.825 31.4 34.675 31.2C34.525 31 34.4833 30.7833 34.55 30.55L35 28.95C35.0667 28.7833 35.1667 28.6417 35.3 28.525C35.4333 28.4083 35.6 28.3667 35.8 28.4L38.3 28.75C38.6667 28.8167 38.9583 28.9667 39.175 29.2C39.3917 29.4333 39.5 29.7333 39.5 30.1C39.5 30.4667 39.3583 30.7917 39.075 31.075C38.7917 31.3583 38.4667 31.5 38.1 31.5V31.5ZM30.6 30.75L25.4 29C25.2 28.9333 25.05 28.8 24.95 28.6C24.85 28.4 24.85 28.2 24.95 28L26.25 25.05C26.35 24.85 26.5 24.7083 26.7 24.625C26.9 24.5417 27.1 24.5667 27.3 24.7L31.7 27.25C31.8667 27.3167 31.975 27.425 32.025 27.575C32.075 27.725 32.0833 27.8833 32.05 28.05L31.6 30.2C31.5333 30.4333 31.4 30.6 31.2 30.7C31 30.8 30.8 30.8167 30.6 30.75ZM21.3 27.25L17.65 26.3C17.3167 26.2 17.0417 26.025 16.825 25.775C16.6083 25.525 16.5 25.2167 16.5 24.85V23C16.5 22.4333 16.5833 21.8833 16.75 21.35C16.9167 20.8167 17.2 20.3667 17.6 20C17.7667 19.8333 17.95 19.725 18.15 19.675C18.35 19.625 18.55 19.65 18.75 19.75L23.45 22.35C23.6167 22.45 23.725 22.5917 23.775 22.775C23.825 22.9583 23.8167 23.1333 23.75 23.3L22.2 26.85C22.1333 27.0167 22.0083 27.1417 21.825 27.225C21.6417 27.3083 21.4667 27.3167 21.3 27.25V27.25ZM11.2 25.5C11 25.5 10.8417 25.425 10.725 25.275C10.6083 25.125 10.5167 24.9333 10.45 24.7C10.15 23.1 9.40833 21.8333 8.225 20.9C7.04167 19.9667 5.63333 19.5 4 19.5H3C2.83333 19.5 2.70833 19.4583 2.625 19.375C2.54167 19.2917 2.5 19.1667 2.5 19C2.5 18.8333 2.54167 18.7083 2.625 18.625C2.70833 18.5417 2.83333 18.5 3 18.5H4.8C5.5 18.5 6.18333 18.4083 6.85 18.225C7.51667 18.0417 8.13333 17.7667 8.7 17.4C8.8 17.3333 8.9 17.3 9 17.3C9.1 17.3 9.2 17.3333 9.3 17.4C10 17.8333 10.7333 18.125 11.5 18.275C12.2667 18.425 12.9333 18.5 13.5 18.5C13.8 18.5 14.0333 18.6167 14.2 18.85C14.3667 19.0833 14.3833 19.3333 14.25 19.6C13.9833 20.1333 13.7917 20.6917 13.675 21.275C13.5583 21.8583 13.5 22.4333 13.5 23V24.75C13.5 24.95 13.425 25.125 13.275 25.275C13.125 25.425 12.95 25.5 12.75 25.5H11.2ZM5 15.5C3.73333 15.5 2.66667 15.0833 1.8 14.25C0.933334 13.4167 0.5 12.3833 0.5 11.15C0.5 10.5833 0.608333 10.0333 0.825 9.5C1.04167 8.96667 1.35 8.5 1.75 8.1L4.5 5.35V0H7.5V5.2C7.5 5.66667 7.40833 6.10833 7.225 6.525C7.04167 6.94167 6.78333 7.31667 6.45 7.65L3.9 10.25C3.76667 10.3833 3.66667 10.525 3.6 10.675C3.53333 10.825 3.5 10.9833 3.5 11.15C3.5 11.5167 3.63333 11.8333 3.9 12.1C4.16667 12.3667 4.48333 12.5 4.85 12.5C5.11667 12.5 5.5 12.3167 6 11.95C6.43333 11.5833 6.9 11.2833 7.4 11.05C7.9 10.8167 8.43333 10.7 9 10.7C9.56667 10.7 10.1 10.8167 10.6 11.05C11.1 11.2833 11.5667 11.5833 12 11.95C12.1667 12.1167 12.3417 12.25 12.525 12.35C12.7083 12.45 12.9167 12.5 13.15 12.5C13.5167 12.5 13.8333 12.3667 14.1 12.1C14.3667 11.8333 14.5 11.5167 14.5 11.15C14.5 10.9833 14.4667 10.825 14.4 10.675C14.3333 10.525 14.2333 10.3833 14.1 10.25L11.55 7.65C11.2167 7.31667 10.9583 6.94167 10.775 6.525C10.5917 6.10833 10.5 5.66667 10.5 5.2V0H13.5V5.35L16.25 8.1C16.65 8.5 16.9583 8.96667 17.175 9.5C17.3917 10.0333 17.5 10.5833 17.5 11.15C17.5 12.3833 17.0667 13.4167 16.2 14.25C15.3333 15.0833 14.2667 15.5 13 15.5C12.4333 15.4667 11.9083 15.3333 11.425 15.1C10.9417 14.8667 10.4833 14.5667 10.05 14.2C9.88333 14.0667 9.71667 13.95 9.55 13.85C9.38333 13.75 9.2 13.7 9 13.7C8.76667 13.7 8.41667 13.8667 7.95 14.2C7.51667 14.5667 7.05833 14.8667 6.575 15.1C6.09167 15.3333 5.56667 15.4667 5 15.5Z" fill="currentColor"/>
</svg>
