<svg viewBox="0 0 28 36" fill="none" xmlns="http://www.w3.org/2000/svg">
<path d="M12 28.55H15.95V23H21.65V19H15.95V13.45H12V19H6.35V23H12V28.55ZM3 36C2.16667 36 1.45833 35.7083 0.875 35.125C0.291667 34.5417 0 33.8333 0 33V9.05C0 8.21667 0.291667 7.50833 0.875 6.925C1.45833 6.34167 2.16667 6.05 3 6.05H25C25.8333 6.05 26.5417 6.34167 27.125 6.925C27.7083 7.50833 28 8.21667 28 9.05V33C28 33.8333 27.7083 34.5417 27.125 35.125C26.5417 35.7083 25.8333 36 25 36H3ZM3 33H25V9.05H3V33ZM2 3V0H26.05V3H2ZM3 9.05V33V9.05Z" fill="currentColor"/>
</svg>
