<svg viewBox="0 0 36 37" fill="none" xmlns="http://www.w3.org/2000/svg">
<path d="M28 0.25C30.2 0.25 32.0833 1.03333 33.65 2.6C35.2167 4.16667 36 6.05 36 8.25C36 8.61667 35.975 9.10833 35.925 9.725C35.875 10.3417 35.8 11.05 35.7 11.85L32.95 32C32.7833 33.3667 32.1833 34.425 31.15 35.175C30.1167 35.925 29.0167 36.3 27.85 36.3C27.15 36.3 26.4667 36.15 25.8 35.85C25.1333 35.55 24.5667 35.0667 24.1 34.4L18.75 26.6C18.6833 26.5 18.575 26.4167 18.425 26.35C18.275 26.2833 18.1167 26.25 17.95 26.25C17.8833 26.25 17.6167 26.4 17.15 26.7L11.95 34.25C11.4833 34.95 10.9 35.4667 10.2 35.8C9.5 36.1333 8.78333 36.3 8.05 36.3C6.88333 36.3 5.79167 35.925 4.775 35.175C3.75833 34.425 3.16667 33.35 3 31.95L0.3 11.85C0.2 11.05 0.125 10.3417 0.0749998 9.725C0.0249998 9.10833 0 8.61667 0 8.25C0 6.05 0.783334 4.16667 2.35 2.6C3.91667 1.03333 5.8 0.25 8 0.25C9.2 0.25 10.1583 0.408333 10.875 0.725C11.5917 1.04167 12.2833 1.38333 12.95 1.75C13.6167 2.11667 14.325 2.45833 15.075 2.775C15.825 3.09167 16.8 3.25 18 3.25C19.2 3.25 20.175 3.09167 20.925 2.775C21.675 2.45833 22.3833 2.11667 23.05 1.75C23.7167 1.38333 24.4167 1.04167 25.15 0.725C25.8833 0.408333 26.8333 0.25 28 0.25ZM28 3.25C27.2333 3.25 26.5667 3.36667 26 3.6C25.4333 3.83333 24.85 4.13333 24.25 4.5C23.1833 5.1 22.1917 5.54167 21.275 5.825C20.3583 6.10833 19.2667 6.25 18 6.25C16.7333 6.25 15.65 6.10833 14.75 5.825C13.85 5.54167 12.8667 5.1 11.8 4.5C11.2 4.13333 10.6083 3.83333 10.025 3.6C9.44167 3.36667 8.76667 3.25 8 3.25C6.6 3.25 5.41667 3.73333 4.45 4.7C3.48333 5.66667 3 6.85 3 8.25C3 8.51667 3.01667 8.91667 3.05 9.45C3.08333 9.98333 3.15 10.6 3.25 11.3L6 31.5C6.06667 32.0667 6.30833 32.5 6.725 32.8C7.14167 33.1 7.58333 33.25 8.05 33.25C8.35 33.25 8.63333 33.175 8.9 33.025C9.16667 32.875 9.4 32.6667 9.6 32.4L14.65 25C15.05 24.4333 15.55 24 16.15 23.7C16.75 23.4 17.3667 23.25 18 23.25C18.6333 23.25 19.2417 23.4 19.825 23.7C20.4083 24 20.9 24.4333 21.3 25L26.45 32.55C26.6167 32.8167 26.8333 33.0083 27.1 33.125C27.3667 33.2417 27.6333 33.3 27.9 33.3C28.3667 33.3 28.8083 33.1417 29.225 32.825C29.6417 32.5083 29.8833 32.1 29.95 31.6L32.75 11.3C32.85 10.6 32.9167 9.98333 32.95 9.45C32.9833 8.91667 33 8.51667 33 8.25C33 6.85 32.5167 5.66667 31.55 4.7C30.5833 3.73333 29.4 3.25 28 3.25Z" fill="currentColor"/>
</svg>
